HIERARCHY
ROOT Pelvis
{
	OFFSET 0.000000 0.000000 0.000000
	CHANNELS 6 Xposition Yposition Zposition Xrotation Yrotation Zrotation
	JOINT LeftUpLeg_virtual
	{
		OFFSET 0.000000 0.000000 0.000000
		CHANNELS 3 Xrotation Yrotation Zrotation
		JOINT LeftUpLeg
		{
			OFFSET 18.735201 -5.666702 -4.541200
			CHANNELS 3 Xrotation Yrotation Zrotation
			JOINT LeftLeg
			{
				OFFSET -0.021200 -31.938179 0.493100
				CHANNELS 3 Xrotation Yrotation Zrotation
				JOINT LeftFoot
				{
					OFFSET 0.021200 -31.938179 -4.336299
					CHANNELS 3 Xrotation Yrotation Zrotation
					JOINT LeftToeBase
					{
						OFFSET 0.943001 -26.722000 15.023500
						CHANNELS 3 Xrotation Yrotation Zrotation
						End Site
						{
							OFFSET 0 0 0
						}
					}
				}
			}
		}
	}
	JOINT RightUpLeg_virtual
	{
		OFFSET 0.000000 0.000000 0.000000
		CHANNELS 3 Xrotation Yrotation Zrotation
		JOINT RightUpLeg
		{
			OFFSET -18.735201 -5.666702 -4.541200
			CHANNELS 3 Xrotation Yrotation Zrotation
			JOINT RightLeg
			{
				OFFSET 0.018946 -31.938133 0.493100
				CHANNELS 3 Xrotation Yrotation Zrotation
				JOINT RightFoot
				{
					OFFSET -0.018946 -31.938126 -4.336299
					CHANNELS 3 Xrotation Yrotation Zrotation
					JOINT RightToeBase
					{
						OFFSET -0.943001 -26.722004 15.023500
						CHANNELS 3 Xrotation Yrotation Zrotation
						End Site
						{
							OFFSET 0 0 0
						}
					}
				}
			}
		}
	}
	JOINT Hips_virtual
	{
		OFFSET 0.000000 0.000000 0.000000
		CHANNELS 3 Xrotation Yrotation Zrotation
		JOINT Hips
		{
			OFFSET -0.000000 -0.000000 -0.000000
			CHANNELS 3 Xrotation Yrotation Zrotation
			JOINT Spine
			{
				OFFSET 0.000000 10.199997 -0.299500
				CHANNELS 3 Xrotation Yrotation Zrotation
				JOINT Spine1
				{
					OFFSET 0.000000 11.900002 -1.516600
					CHANNELS 3 Xrotation Yrotation Zrotation
					JOINT Spine2
					{
						OFFSET 0.000000 13.600006 -2.842500
						CHANNELS 3 Xrotation Yrotation Zrotation
						JOINT Neck_virtual
						{
							OFFSET 0.000000 0.000000 0.000000
							CHANNELS 3 Xrotation Yrotation Zrotation
							JOINT Neck
							{
								OFFSET 0.000000 9.624100 -2.890100
								CHANNELS 3 Xrotation Yrotation Zrotation
								JOINT Head
								{
									OFFSET 0.000000 14.068802 -1.351900
									CHANNELS 3 Xrotation Yrotation Zrotation
									End Site
									{
										OFFSET 0 0 0
									}
								}
							}
						}
						JOINT LeftShoulder_virtual
						{
							OFFSET 0.000000 0.000000 0.000000
							CHANNELS 3 Xrotation Yrotation Zrotation
							JOINT LeftShoulder
							{
								OFFSET 15.263000 10.923401 -0.547700
								CHANNELS 3 Xrotation Yrotation Zrotation
								JOINT LeftArm
								{
									OFFSET 25.438599 -2.830597 -13.032500
									CHANNELS 3 Xrotation Yrotation Zrotation
									JOINT LeftForeArm
									{
										OFFSET 29.960503 0.000000 0.000000
										CHANNELS 3 Xrotation Yrotation Zrotation
										JOINT LeftHand
										{
											OFFSET 27.849251 0.000000 0.000000
											CHANNELS 3 Xrotation Yrotation Zrotation
											End Site
											{
												OFFSET 0 0 0
											}
										}
									}
								}
							}
						}
						JOINT RightShoulder_virtual
						{
							OFFSET 0.000000 0.000000 0.000000
							CHANNELS 3 Xrotation Yrotation Zrotation
							JOINT RightShoulder
							{
								OFFSET -15.263000 10.923401 -0.547700
								CHANNELS 3 Xrotation Yrotation Zrotation
								JOINT RightArm
								{
									OFFSET -25.438599 -2.830597 -13.032500
									CHANNELS 3 Xrotation Yrotation Zrotation
									JOINT RightForeArm
									{
										OFFSET -29.960503 0.000000 0.000000
										CHANNELS 3 Xrotation Yrotation Zrotation
										JOINT RightHand
										{
											OFFSET -27.849251 0.000000 0.000000
											CHANNELS 3 Xrotation Yrotation Zrotation
											End Site
											{
												OFFSET 0 0 0
											}
										}
									}
								}
							}
						}
					}
				}
			}
		}
	}
}
MOTION
Frames: 4
Frame Time: 0.03333333
0.254312 55.875648 10.495743 0.000000 0.000000 0.000000 0.145579 0.090586 0.907408 -100.888868 -11.098338 12.490932 84.226642 3.936466 -0.120317 18.524178 -7.648963 -7.651208 0.000000 0.000000 0.000000 0.145579 0.090586 0.907408 -102.685658 12.052968 -8.143057 85.274051 -3.469075 -1.480388 19.297777 0.869904 9.046144 0.000000 0.000000 0.000000 0.145579 0.090586 0.907408 0.000000 0.000000 0.000000 10.430367 0.096007 -1.528295 -0.199257 0.213326 -0.355463 0.000000 0.000000 0.000000 -0.199585 0.248526 -0.300880 -0.401922 -0.512719 0.190457 0.000000 0.000000 0.000000 -0.199585 0.248526 -0.300880 0.823521 -15.262029 -7.868751 4.746712 -21.216453 -54.862241 0.000028 -62.197478 0.000032 0.000000 0.000000 0.000000 -0.199585 0.248526 -0.300880 3.171093 -4.378724 8.782886 -3.950240 37.253375 63.733636 -0.000023 55.137945 0.000028 0.000000 0.000000 0.000000 
0.241636 55.958611 10.432707 0.000000 0.000000 0.000000 -0.412933 0.071364 1.000801 -100.208622 -10.948636 12.560676 84.127235 3.919848 -0.119303 18.501113 -7.645219 -7.626763 0.000000 0.000000 0.000000 -0.412933 0.071364 1.000801 -102.136996 12.005775 -8.230251 85.242871 -3.358399 -1.483233 19.306783 0.849982 8.920331 0.000000 0.000000 0.000000 -0.412933 0.071364 1.000801 0.000000 0.000000 0.000000 10.212707 0.066525 -1.524024 0.247318 0.210143 -0.363243 0.000000 0.000000 0.000000 0.247050 0.242483 -0.311429 -0.346660 -0.501894 0.188917 0.000000 0.000000 0.000000 0.247050 0.242483 -0.311429 0.823218 -15.329303 -7.716561 4.455912 -21.455912 -54.700864 0.000020 -61.301248 0.000018 0.000000 0.000000 0.000000 0.247050 0.242483 -0.311429 3.130741 -4.188132 9.128581 -3.788732 37.492431 62.416659 -0.000012 54.701431 0.000023 0.000000 0.000000 0.000000 
0.232114 56.047691 10.373739 0.000000 0.000000 0.000000 -0.955807 0.061957 1.089737 -99.540643 -10.787996 12.617393 84.014557 3.901379 -0.117399 18.482594 -7.640297 -7.582347 0.000000 0.000000 0.000000 -0.955807 0.061957 1.089737 -101.584659 11.966007 -8.324937 85.212136 -3.258091 -1.485790 19.301235 0.831124 8.807753 0.000000 0.000000 0.000000 -0.955807 0.061957 1.089737 0.000000 0.000000 0.000000 10.001990 0.041781 -1.516995 0.733888 0.214279 -0.373962 0.000000 0.000000 0.000000 0.733708 0.243699 -0.324692 -0.305673 -0.492072 0.192361 0.000000 0.000000 0.000000 0.733708 0.243699 -0.324692 0.826525 -15.600728 -7.588858 4.308928 -21.403929 -54.419761 -0.000015 -61.023779 -0.000026 0.000000 0.000000 0.000000 0.733708 0.243699 -0.324692 3.082115 -3.976041 9.440668 -3.601788 37.650762 61.027419 0.000008 54.399021 -0.000007 0.000000 0.000000 0.000000 
0.226735 56.141090 10.312611 0.000000 0.000000 0.000000 -1.483207 0.057010 1.176814 -98.882834 -10.617294 12.664016 83.885460 3.889989 -0.115163 18.472561 -7.634563 -7.525217 0.000000 0.000000 0.000000 -1.483207 0.057010 1.176814 -101.032629 11.930726 -8.423972 85.165868 -3.161850 -1.488549 19.298729 0.813656 8.699402 0.000000 0.000000 0.000000 -1.483207 0.057010 1.176814 0.000000 0.000000 0.000000 9.796479 0.019274 -1.508513 1.248923 0.222378 -0.387395 0.000000 0.000000 0.000000 1.248840 0.248826 -0.340488 -0.273661 -0.482473 0.197713 0.000000 0.000000 0.000000 1.248840 0.248826 -0.340488 0.832471 -15.979337 -7.489320 4.238263 -21.173436 -54.038886 -0.000018 -61.236683 -0.000020 0.000000 0.000000 0.000000 1.248840 0.248826 -0.340488 3.026187 -3.737177 9.731911 -3.408157 37.697600 59.557556 -0.000033 54.333380 0.000048 0.000000 0.000000 0.000000 
